<svg xmlns="http://www.w3.org/2000/svg" xmlns:xlink="http://www.w3.org/1999/xlink" width="981" height="385" viewBox="0 0 981 385"><defs><linearGradient id="a" x1="0.5" x2="0.5" y2="1" gradientUnits="objectBoundingBox"><stop offset="0" stop-color="#fff"/><stop offset="1" stop-color="#f5f5f5"/></linearGradient></defs><rect width="980" height="385" rx="6" fill="#fff"/><g transform="translate(24 88)"><path d="M9.719,13.508a3.465,3.465,0,0,1-1.613,1.238,6.517,6.517,0,0,1-2.41.41A4.674,4.674,0,0,1,3.227,14.5a4.346,4.346,0,0,1-1.668-1.855A6.408,6.408,0,0,1,.953,9.859V8.867a5.982,5.982,0,0,1,1.2-3.984A4.179,4.179,0,0,1,5.523,3.469a4.316,4.316,0,0,1,2.867.91A3.965,3.965,0,0,1,9.719,6.961h-1.5A2.48,2.48,0,0,0,5.531,4.7a2.655,2.655,0,0,0-2.285,1.06,5.173,5.173,0,0,0-.785,3.069v.93A4.848,4.848,0,0,0,3.336,12.8,2.836,2.836,0,0,0,5.7,13.93a5.228,5.228,0,0,0,1.477-.187,2.283,2.283,0,0,0,1.047-.631V10.563H5.594V9.336H9.719Zm7.492.656a3.07,3.07,0,0,1-2.477.992,2.628,2.628,0,0,1-2.059-.785,3.4,3.4,0,0,1-.715-2.324v-5.5h1.445v5.461q0,1.922,1.563,1.922a2.163,2.163,0,0,0,2.2-1.234V6.547h1.445V15H17.242ZM22.773,4.5V6.547h1.578V7.664H22.773v5.249a1.173,1.173,0,0,0,.211.763.888.888,0,0,0,.719.254,3.5,3.5,0,0,0,.688-.094V15a4.215,4.215,0,0,1-1.109.155,1.8,1.8,0,0,1-1.461-.586,2.517,2.517,0,0,1-.492-1.664V7.664H19.789V6.547h1.539V4.5Z" transform="translate(218 240)" fill="#111"/><path d="M5.086,13.008l3.25-9.383H9.977L5.758,15H4.43L.219,3.625H1.852Zm9.352,2.148a3.693,3.693,0,0,1-2.8-1.129,4.19,4.19,0,0,1-1.078-3.02v-.266a5.073,5.073,0,0,1,.48-2.246,3.748,3.748,0,0,1,1.344-1.547,3.378,3.378,0,0,1,1.871-.559A3.166,3.166,0,0,1,16.82,7.477a4.7,4.7,0,0,1,.914,3.109v.6H12.008a3,3,0,0,0,.73,2.02,2.3,2.3,0,0,0,1.777.77,2.517,2.517,0,0,0,1.3-.312,3.259,3.259,0,0,0,.93-.828l.883.688A3.55,3.55,0,0,1,14.438,15.156Zm-.18-7.578a1.928,1.928,0,0,0-1.469.637A3.1,3.1,0,0,0,12.055,10h4.234V9.891A2.753,2.753,0,0,0,15.7,8.184,1.815,1.815,0,0,0,14.258,7.578Zm9.234.266a4.331,4.331,0,0,0-.711-.055A1.9,1.9,0,0,0,20.852,9v6H19.406V6.547h1.406l.023.977a2.251,2.251,0,0,1,2.016-1.133,1.477,1.477,0,0,1,.641.109Zm8.484,3.023a5.026,5.026,0,0,1-.891,3.113A2.846,2.846,0,0,1,28.7,15.156a2.947,2.947,0,0,1-2.477-1.133l-.07.977H24.82V3h1.445V7.477A2.93,2.93,0,0,1,28.68,6.391,2.863,2.863,0,0,1,31.1,7.555a5.177,5.177,0,0,1,.879,3.188ZM30.531,10.7a3.906,3.906,0,0,0-.57-2.281,1.888,1.888,0,0,0-1.641-.8,2.122,2.122,0,0,0-2.055,1.328V12.6a2.181,2.181,0,0,0,2.07,1.328,1.878,1.878,0,0,0,1.617-.8A4.153,4.153,0,0,0,30.531,10.7ZM37.3,15.156a3.693,3.693,0,0,1-2.8-1.129,4.19,4.19,0,0,1-1.078-3.02v-.266A5.073,5.073,0,0,1,33.91,8.5a3.748,3.748,0,0,1,1.344-1.547,3.378,3.378,0,0,1,1.871-.559,3.166,3.166,0,0,1,2.563,1.086,4.7,4.7,0,0,1,.914,3.109v.6H34.875a3,3,0,0,0,.73,2.02,2.3,2.3,0,0,0,1.777.77,2.517,2.517,0,0,0,1.3-.312,3.259,3.259,0,0,0,.93-.828l.883.688A3.55,3.55,0,0,1,37.3,15.156Zm-.18-7.578a1.928,1.928,0,0,0-1.469.637A3.1,3.1,0,0,0,34.922,10h4.234V9.891a2.753,2.753,0,0,0-.594-1.707A1.815,1.815,0,0,0,37.125,7.578Zm10.07,5.18a1.064,1.064,0,0,0-.441-.91,4.249,4.249,0,0,0-1.539-.559,7.277,7.277,0,0,1-1.742-.562,2.479,2.479,0,0,1-.953-.781,1.869,1.869,0,0,1-.309-1.078,2.193,2.193,0,0,1,.879-1.758,3.432,3.432,0,0,1,2.246-.719,3.532,3.532,0,0,1,2.332.742,2.357,2.357,0,0,1,.895,1.9H47.109a1.3,1.3,0,0,0-.5-1.023,1.888,1.888,0,0,0-1.27-.43,1.976,1.976,0,0,0-1.234.344,1.082,1.082,0,0,0-.445.9.877.877,0,0,0,.414.789,5.1,5.1,0,0,0,1.5.508,7.8,7.8,0,0,1,1.754.578,2.558,2.558,0,0,1,1,.809,1.988,1.988,0,0,1,.324,1.152,2.163,2.163,0,0,1-.906,1.816,3.8,3.8,0,0,1-2.352.684,4.257,4.257,0,0,1-1.8-.359,2.922,2.922,0,0,1-1.223-1,2.42,2.42,0,0,1-.441-1.395h1.445a1.5,1.5,0,0,0,.582,1.152,2.258,2.258,0,0,0,1.434.426,2.331,2.331,0,0,0,1.316-.332A1.02,1.02,0,0,0,47.2,12.758Zm8.25,0a1.064,1.064,0,0,0-.441-.91,4.249,4.249,0,0,0-1.539-.559,7.277,7.277,0,0,1-1.742-.562,2.479,2.479,0,0,1-.953-.781,1.869,1.869,0,0,1-.309-1.078,2.193,2.193,0,0,1,.879-1.758,3.432,3.432,0,0,1,2.246-.719,3.532,3.532,0,0,1,2.332.742,2.357,2.357,0,0,1,.895,1.9H55.359a1.3,1.3,0,0,0-.5-1.023,1.888,1.888,0,0,0-1.27-.43,1.976,1.976,0,0,0-1.234.344,1.082,1.082,0,0,0-.445.9.877.877,0,0,0,.414.789,5.1,5.1,0,0,0,1.5.508,7.8,7.8,0,0,1,1.754.578,2.558,2.558,0,0,1,1,.809,1.988,1.988,0,0,1,.324,1.152,2.163,2.163,0,0,1-.906,1.816,3.8,3.8,0,0,1-2.352.684,4.257,4.257,0,0,1-1.8-.359,2.922,2.922,0,0,1-1.223-1,2.42,2.42,0,0,1-.441-1.395h1.445a1.5,1.5,0,0,0,.582,1.152,2.258,2.258,0,0,0,1.434.426,2.331,2.331,0,0,0,1.316-.332A1.02,1.02,0,0,0,55.445,12.758Zm6.836,2.4a3.693,3.693,0,0,1-2.8-1.129,4.19,4.19,0,0,1-1.078-3.02v-.266a5.073,5.073,0,0,1,.48-2.246A3.748,3.748,0,0,1,60.23,6.949,3.378,3.378,0,0,1,62.1,6.391a3.166,3.166,0,0,1,2.563,1.086,4.7,4.7,0,0,1,.914,3.109v.6H59.852a3,3,0,0,0,.73,2.02,2.3,2.3,0,0,0,1.777.77,2.517,2.517,0,0,0,1.3-.312,3.259,3.259,0,0,0,.93-.828l.883.688A3.55,3.55,0,0,1,62.281,15.156ZM62.1,7.578a1.928,1.928,0,0,0-1.469.637A3.1,3.1,0,0,0,59.9,10h4.234V9.891a2.753,2.753,0,0,0-.594-1.707A1.815,1.815,0,0,0,62.1,7.578Zm9.234.266a4.331,4.331,0,0,0-.711-.055A1.9,1.9,0,0,0,68.7,9v6H67.25V6.547h1.406l.023.977A2.251,2.251,0,0,1,70.7,6.391a1.477,1.477,0,0,1,.641.109Zm6.547,6.32a3.07,3.07,0,0,1-2.477.992,2.628,2.628,0,0,1-2.059-.785,3.4,3.4,0,0,1-.715-2.324v-5.5h1.445v5.461q0,1.922,1.563,1.922a2.163,2.163,0,0,0,2.2-1.234V6.547h1.445V15H77.914Zm4.969-7.617L82.9,7.609A3.08,3.08,0,0,1,85.43,6.391q2.68,0,2.7,3.023V15H86.688V9.406a1.946,1.946,0,0,0-.418-1.352,1.675,1.675,0,0,0-1.277-.437,2.086,2.086,0,0,0-1.234.375,2.546,2.546,0,0,0-.828.984V15H81.484V6.547ZM89.969,10.7a4.968,4.968,0,0,1,.914-3.145,3.151,3.151,0,0,1,4.836-.074l.07-.937h1.32V14.8a3.439,3.439,0,0,1-.973,2.586,3.589,3.589,0,0,1-2.613.945,4.348,4.348,0,0,1-1.789-.391,3.08,3.08,0,0,1-1.336-1.07l.75-.867a2.826,2.826,0,0,0,2.273,1.148,2.214,2.214,0,0,0,1.645-.594,2.269,2.269,0,0,0,.59-1.672v-.727a2.971,2.971,0,0,1-2.367,1,2.887,2.887,0,0,1-2.4-1.2A5.224,5.224,0,0,1,89.969,10.7Zm1.453.164a3.79,3.79,0,0,0,.586,2.246,1.9,1.9,0,0,0,1.641.816,2.117,2.117,0,0,0,2.008-1.242V8.828a2.142,2.142,0,0,0-1.992-1.211,1.921,1.921,0,0,0-1.648.82A4.128,4.128,0,0,0,91.422,10.867Zm12.789,1.891a1.064,1.064,0,0,0-.441-.91,4.249,4.249,0,0,0-1.539-.559,7.277,7.277,0,0,1-1.742-.562,2.479,2.479,0,0,1-.953-.781,1.869,1.869,0,0,1-.309-1.078,2.193,2.193,0,0,1,.879-1.758,3.432,3.432,0,0,1,2.246-.719,3.532,3.532,0,0,1,2.332.742,2.357,2.357,0,0,1,.895,1.9h-1.453a1.3,1.3,0,0,0-.5-1.023,1.888,1.888,0,0,0-1.27-.43,1.976,1.976,0,0,0-1.234.344,1.082,1.082,0,0,0-.445.9.877.877,0,0,0,.414.789,5.1,5.1,0,0,0,1.5.508,7.8,7.8,0,0,1,1.754.578,2.558,2.558,0,0,1,1,.809,1.988,1.988,0,0,1,.324,1.152,2.163,2.163,0,0,1-.906,1.816,3.8,3.8,0,0,1-2.352.684,4.257,4.257,0,0,1-1.8-.359,2.922,2.922,0,0,1-1.223-1,2.42,2.42,0,0,1-.441-1.395h1.445a1.5,1.5,0,0,0,.582,1.152,2.258,2.258,0,0,0,1.434.426,2.331,2.331,0,0,0,1.316-.332A1.02,1.02,0,0,0,104.211,12.758Zm10.813.25,1.625-6.461h1.445L115.633,15h-1.172l-2.055-6.406-2,6.406h-1.172l-2.453-8.453h1.438l1.664,6.328,1.969-6.328h1.164Zm9.758,1.156a3.07,3.07,0,0,1-2.477.992,2.628,2.628,0,0,1-2.059-.785,3.4,3.4,0,0,1-.715-2.324v-5.5h1.445v5.461q0,1.922,1.563,1.922a2.163,2.163,0,0,0,2.2-1.234V6.547h1.445V15h-1.375Zm-4.4-9.879a.855.855,0,0,1,.215-.593.812.812,0,0,1,.637-.239.824.824,0,0,1,.641.239.846.846,0,0,1,.219.593.784.784,0,0,1-.859.824.819.819,0,0,1-.637-.235A.84.84,0,0,1,120.383,4.285Zm3.359.016a.869.869,0,0,1,.215-.6.8.8,0,0,1,.637-.243.817.817,0,0,1,.641.243.86.86,0,0,1,.219.6.784.784,0,0,1-.859.824.819.819,0,0,1-.637-.235A.84.84,0,0,1,123.742,4.3Zm8.727,3.543a4.331,4.331,0,0,0-.711-.055A1.9,1.9,0,0,0,129.828,9v6h-1.445V6.547h1.406l.023.977a2.251,2.251,0,0,1,2.016-1.133,1.477,1.477,0,0,1,.641.109ZM133.3,10.7a4.952,4.952,0,0,1,.922-3.129,3.137,3.137,0,0,1,4.766-.168V3h1.445V15H139.1l-.07-.906a2.943,2.943,0,0,1-2.414,1.063,2.887,2.887,0,0,1-2.395-1.2,5.008,5.008,0,0,1-.926-3.141Zm1.445.164a3.749,3.749,0,0,0,.594,2.25,1.919,1.919,0,0,0,1.641.813,2.108,2.108,0,0,0,2.008-1.234V8.813a2.125,2.125,0,0,0-1.992-1.2,1.929,1.929,0,0,0-1.656.82A4.128,4.128,0,0,0,134.742,10.867Zm9.5,4.133H142.8V6.547h1.445ZM142.68,4.3a.863.863,0,0,1,.215-.594.807.807,0,0,1,.637-.242.819.819,0,0,1,.641.242.854.854,0,0,1,.219.594.826.826,0,0,1-.219.586.834.834,0,0,1-.641.234.821.821,0,0,1-.637-.234A.834.834,0,0,1,142.68,4.3Zm3.531,6.4a4.968,4.968,0,0,1,.914-3.145,3.151,3.151,0,0,1,4.836-.074l.07-.937h1.32V14.8a3.439,3.439,0,0,1-.973,2.586,3.589,3.589,0,0,1-2.613.945,4.348,4.348,0,0,1-1.789-.391,3.08,3.08,0,0,1-1.336-1.07l.75-.867a2.826,2.826,0,0,0,2.273,1.148,2.214,2.214,0,0,0,1.645-.594,2.269,2.269,0,0,0,.59-1.672v-.727a2.971,2.971,0,0,1-2.367,1,2.887,2.887,0,0,1-2.4-1.2A5.224,5.224,0,0,1,146.211,10.7Zm1.453.164a3.79,3.79,0,0,0,.586,2.246,1.9,1.9,0,0,0,1.641.816,2.117,2.117,0,0,0,2.008-1.242V8.828a2.142,2.142,0,0,0-1.992-1.211,1.921,1.921,0,0,0-1.648.82A4.128,4.128,0,0,0,147.664,10.867Z" transform="translate(306 240)" fill="#111"/><path d="M4.672,9.93A7.053,7.053,0,0,1,1.863,8.566a2.6,2.6,0,0,1-.879-2A2.751,2.751,0,0,1,2.059,4.348a4.269,4.269,0,0,1,2.793-.879,4.66,4.66,0,0,1,2.09.453,3.436,3.436,0,0,1,1.422,1.25,3.2,3.2,0,0,1,.5,1.742H7.359A2.08,2.08,0,0,0,6.7,5.287,2.669,2.669,0,0,0,4.852,4.7a2.732,2.732,0,0,0-1.73.489A1.632,1.632,0,0,0,2.5,6.542,1.468,1.468,0,0,0,3.09,7.72,5.785,5.785,0,0,0,5.1,8.6a9.316,9.316,0,0,1,2.219.88A3.367,3.367,0,0,1,8.5,10.6a2.861,2.861,0,0,1,.387,1.508,2.658,2.658,0,0,1-1.078,2.215,4.6,4.6,0,0,1-2.883.832,5.347,5.347,0,0,1-2.187-.449,3.681,3.681,0,0,1-1.566-1.23A3,3,0,0,1,.625,11.7H2.133a1.959,1.959,0,0,0,.762,1.629,3.207,3.207,0,0,0,2.035.6,2.948,2.948,0,0,0,1.82-.484,1.573,1.573,0,0,0,.633-1.32A1.545,1.545,0,0,0,6.8,10.832,6.755,6.755,0,0,0,4.672,9.93Zm9.3,4.047a2.082,2.082,0,0,0,1.352-.469,1.649,1.649,0,0,0,.641-1.172h1.367a2.621,2.621,0,0,1-.5,1.383,3.293,3.293,0,0,1-1.23,1.047,3.55,3.55,0,0,1-1.629.391A3.482,3.482,0,0,1,11.23,14a4.59,4.59,0,0,1-1.02-3.152v-.242a5.089,5.089,0,0,1,.453-2.2,3.451,3.451,0,0,1,1.3-1.492,3.7,3.7,0,0,1,2-.531,3.39,3.39,0,0,1,2.363.852,3.043,3.043,0,0,1,1,2.211H15.969a1.992,1.992,0,0,0-.621-1.348,1.932,1.932,0,0,0-1.379-.527,2.023,2.023,0,0,0-1.707.793,3.724,3.724,0,0,0-.605,2.293v.273a3.65,3.65,0,0,0,.6,2.25A2.033,2.033,0,0,0,13.977,13.977Zm6.43-6.406a3.073,3.073,0,0,1,2.5-1.18q2.68,0,2.7,3.023V15H24.164V9.406a1.946,1.946,0,0,0-.418-1.352,1.675,1.675,0,0,0-1.277-.437,2.086,2.086,0,0,0-1.234.375,2.546,2.546,0,0,0-.828.984V15H18.961V3h1.445ZM29.344,15H27.9V3h1.445Zm5.82.156a3.693,3.693,0,0,1-2.8-1.129,4.19,4.19,0,0,1-1.078-3.02v-.266A5.073,5.073,0,0,1,31.77,8.5a3.748,3.748,0,0,1,1.344-1.547,3.378,3.378,0,0,1,1.871-.559,3.166,3.166,0,0,1,2.563,1.086,4.7,4.7,0,0,1,.914,3.109v.6H32.734a3,3,0,0,0,.73,2.02,2.3,2.3,0,0,0,1.777.77,2.517,2.517,0,0,0,1.3-.312,3.259,3.259,0,0,0,.93-.828l.883.688A3.55,3.55,0,0,1,35.164,15.156Zm-.18-7.578a1.928,1.928,0,0,0-1.469.637A3.1,3.1,0,0,0,32.781,10h4.234V9.891a2.753,2.753,0,0,0-.594-1.707A1.815,1.815,0,0,0,34.984,7.578Zm8.539,6.4a2.082,2.082,0,0,0,1.352-.469,1.649,1.649,0,0,0,.641-1.172h1.367a2.621,2.621,0,0,1-.5,1.383,3.293,3.293,0,0,1-1.23,1.047,3.55,3.55,0,0,1-1.629.391A3.482,3.482,0,0,1,40.777,14a4.59,4.59,0,0,1-1.02-3.152v-.242a5.089,5.089,0,0,1,.453-2.2,3.451,3.451,0,0,1,1.3-1.492,3.7,3.7,0,0,1,2-.531,3.39,3.39,0,0,1,2.363.852,3.043,3.043,0,0,1,1,2.211H45.516a1.992,1.992,0,0,0-.621-1.348,1.932,1.932,0,0,0-1.379-.527,2.023,2.023,0,0,0-1.707.793,3.724,3.724,0,0,0-.605,2.293v.273a3.65,3.65,0,0,0,.6,2.25A2.033,2.033,0,0,0,43.523,13.977Zm6.43-6.406a3.073,3.073,0,0,1,2.5-1.18q2.68,0,2.7,3.023V15H53.711V9.406a1.946,1.946,0,0,0-.418-1.352,1.675,1.675,0,0,0-1.277-.437,2.086,2.086,0,0,0-1.234.375,2.546,2.546,0,0,0-.828.984V15H48.508V3h1.445ZM59.281,4.5V6.547h1.578V7.664H59.281v5.249a1.173,1.173,0,0,0,.211.763.888.888,0,0,0,.719.254,3.5,3.5,0,0,0,.688-.094V15a4.215,4.215,0,0,1-1.109.155,1.8,1.8,0,0,1-1.461-.586,2.517,2.517,0,0,1-.492-1.664V7.664H56.3V6.547h1.539V4.5Z" transform="translate(522 240)" fill="#111"/><path d="M3,0H13a3,3,0,0,1,3,3V13a3,3,0,0,1-3,3H3a3,3,0,0,1-3-3V3A3,3,0,0,1,3,0Z" transform="translate(192 241)" fill="#68b300"/><path d="M3,0H13a3,3,0,0,1,3,3V13a3,3,0,0,1-3,3H3a3,3,0,0,1-3-3V3A3,3,0,0,1,3,0Z" transform="translate(280 241)" fill="#ffbf00"/><path d="M3,0H13a3,3,0,0,1,3,3V13a3,3,0,0,1-3,3H3a3,3,0,0,1-3-3V3A3,3,0,0,1,3,0Z" transform="translate(496 241)" fill="#c02"/></g><g transform="translate(269.693 88)"><line x2="704.011" transform="translate(-53.204 152.5)" fill="none" stroke="#e3e3e3" stroke-width="2"/><line y2="167.5" transform="translate(-52.693 0.5)" fill="none" stroke="#e3e3e3" stroke-width="2"/><text transform="translate(-71.693 176)" fill="#888" font-size="18" font-family="Roboto-Regular, Roboto"><tspan x="8.626" y="17">0 %</tspan></text><line y2="168" transform="translate(122.307)" fill="none" stroke="#e3e3e3" stroke-width="2"/><text transform="translate(102.307 176)" fill="#888" font-size="18" font-family="Roboto-Regular, Roboto"><tspan x="3.573" y="17">25 %</tspan></text><line y2="168" transform="translate(298.307)" fill="none" stroke="#e3e3e3" stroke-width="2"/><text transform="translate(276.307 176)" fill="#888" font-size="18" font-family="Roboto-Regular, Roboto"><tspan x="3.573" y="17">50 %</tspan></text><line y2="168" transform="translate(474.307)" fill="none" stroke="#e3e3e3" stroke-width="2"/><line y2="168" transform="translate(650.307)" fill="none" stroke="#e3e3e3" stroke-width="2"/><text transform="translate(453.307 176)" fill="#888" font-size="18" font-family="Roboto-Regular, Roboto"><tspan x="3.573" y="17">75 %</tspan></text><text transform="translate(619.307 176)" fill="#888" font-size="18" font-family="Roboto-Regular, Roboto"><tspan x="8.519" y="17">100 %</tspan></text></g><g transform="translate(24 88)"><path d="M71.673,17V4.2h3.612a5.815,5.815,0,0,1,2.953.738,4.993,4.993,0,0,1,1.982,2.1,6.837,6.837,0,0,1,.708,3.129v.817a6.861,6.861,0,0,1-.7,3.173,4.915,4.915,0,0,1-2,2.092A6.185,6.185,0,0,1,75.215,17ZM73.36,5.583V15.62h1.775a3.863,3.863,0,0,0,3.037-1.214,5.016,5.016,0,0,0,1.085-3.457V10.2A5.1,5.1,0,0,0,78.234,6.81a3.644,3.644,0,0,0-2.9-1.227ZM87.168,17.176a4.155,4.155,0,0,1-3.146-1.27,4.714,4.714,0,0,1-1.213-3.4v-.3a5.707,5.707,0,0,1,.541-2.527,4.217,4.217,0,0,1,1.512-1.74,3.8,3.8,0,0,1,2.1-.628,3.562,3.562,0,0,1,2.883,1.222,5.289,5.289,0,0,1,1.028,3.5v.677H84.435a3.38,3.38,0,0,0,.822,2.272,2.583,2.583,0,0,0,2,.866,2.832,2.832,0,0,0,1.459-.352,3.666,3.666,0,0,0,1.046-.932l.993.773A3.993,3.993,0,0,1,87.168,17.176Zm-.2-8.525a2.169,2.169,0,0,0-1.652.716,3.482,3.482,0,0,0-.826,2.008h4.764v-.123a3.1,3.1,0,0,0-.668-1.92A2.042,2.042,0,0,0,86.966,8.65Zm11.329,5.827a1.2,1.2,0,0,0-.5-1.024,4.78,4.78,0,0,0-1.731-.628,8.186,8.186,0,0,1-1.96-.633,2.788,2.788,0,0,1-1.072-.879,2.1,2.1,0,0,1-.347-1.213,2.467,2.467,0,0,1,.989-1.978A3.861,3.861,0,0,1,96.2,7.314a3.974,3.974,0,0,1,2.624.835,2.652,2.652,0,0,1,1.006,2.136H98.2a1.468,1.468,0,0,0-.567-1.151A2.124,2.124,0,0,0,96.2,8.65a2.223,2.223,0,0,0-1.389.387,1.217,1.217,0,0,0-.5,1.011.986.986,0,0,0,.466.888,5.731,5.731,0,0,0,1.683.571,8.77,8.77,0,0,1,1.973.65,2.878,2.878,0,0,1,1.121.91,2.237,2.237,0,0,1,.365,1.3,2.434,2.434,0,0,1-1.02,2.043,4.277,4.277,0,0,1-2.646.769,4.789,4.789,0,0,1-2.021-.4,3.288,3.288,0,0,1-1.375-1.129,2.722,2.722,0,0,1-.5-1.569h1.626a1.683,1.683,0,0,0,.655,1.3,2.54,2.54,0,0,0,1.613.479,2.622,2.622,0,0,0,1.481-.374A1.148,1.148,0,0,0,98.295,14.478Zm6.4-1.881-1.02,1.063V17h-1.626V3.5h1.626v8.165l.87-1.046,2.962-3.129h1.978l-3.7,3.973L109.914,17h-1.907Zm8.675-7.409v2.3h1.775V8.747h-1.775v5.9a1.32,1.32,0,0,0,.237.858,1,1,0,0,0,.809.286,3.937,3.937,0,0,0,.773-.105V17a4.742,4.742,0,0,1-1.248.175,2.025,2.025,0,0,1-1.644-.659,2.832,2.832,0,0,1-.554-1.872v-5.9h-1.731V7.49h1.731v-2.3Zm3.067,6.97a5.617,5.617,0,0,1,.549-2.514,4.1,4.1,0,0,1,1.529-1.723,4.163,4.163,0,0,1,2.237-.606,4.01,4.01,0,0,1,3.142,1.345,5.174,5.174,0,0,1,1.2,3.577v.114a5.666,5.666,0,0,1-.532,2.492,4.038,4.038,0,0,1-1.521,1.718,4.211,4.211,0,0,1-2.272.615,4,4,0,0,1-3.133-1.345,5.147,5.147,0,0,1-1.2-3.56Zm1.635.193a4.068,4.068,0,0,0,.734,2.54,2.487,2.487,0,0,0,3.933-.013,4.449,4.449,0,0,0,.729-2.72,4.061,4.061,0,0,0-.743-2.536,2.361,2.361,0,0,0-1.973-.971,2.335,2.335,0,0,0-1.942.958A4.416,4.416,0,0,0,118.07,12.351Zm17.095,0a5.694,5.694,0,0,1-.993,3.5,3.183,3.183,0,0,1-2.689,1.327,3.488,3.488,0,0,1-2.725-1.1v4.579h-1.626V7.49h1.485l.079,1.055a3.35,3.35,0,0,1,2.76-1.23,3.243,3.243,0,0,1,2.711,1.292,5.756,5.756,0,0,1,1,3.595Zm-1.626-.185a4.2,4.2,0,0,0-.686-2.54,2.208,2.208,0,0,0-1.881-.932A2.39,2.39,0,0,0,128.758,10v4.544a2.4,2.4,0,0,0,2.232,1.3,2.2,2.2,0,0,0,1.859-.927A4.587,4.587,0,0,0,133.539,12.166Z" transform="translate(31 5)" fill="#111"/><path d="M85.313,4.2,89.5,14.645,93.681,4.2h2.188V17H94.182V12.017l.158-5.379L90.139,17H88.847L84.654,6.664l.167,5.353V17H83.134V4.2Zm12.85,7.954a5.617,5.617,0,0,1,.549-2.514,4.1,4.1,0,0,1,1.529-1.723,4.163,4.163,0,0,1,2.237-.606,4.01,4.01,0,0,1,3.142,1.345,5.174,5.174,0,0,1,1.2,3.577v.114a5.666,5.666,0,0,1-.532,2.492,4.038,4.038,0,0,1-1.521,1.718,4.211,4.211,0,0,1-2.272.615,4,4,0,0,1-3.133-1.345,5.147,5.147,0,0,1-1.2-3.56Zm1.635.193a4.068,4.068,0,0,0,.734,2.54,2.487,2.487,0,0,0,3.933-.013,4.449,4.449,0,0,0,.729-2.72,4.061,4.061,0,0,0-.743-2.536,2.361,2.361,0,0,0-1.973-.971,2.335,2.335,0,0,0-1.942.958A4.416,4.416,0,0,0,99.8,12.351Zm17.112,0a5.654,5.654,0,0,1-1,3.5,3.2,3.2,0,0,1-2.689,1.323,3.315,3.315,0,0,1-2.786-1.274l-.079,1.1h-1.494V3.5h1.626V8.536A3.3,3.3,0,0,1,113.2,7.314a3.221,3.221,0,0,1,2.72,1.31,5.824,5.824,0,0,1,.989,3.586Zm-1.626-.185a4.394,4.394,0,0,0-.642-2.566,2.124,2.124,0,0,0-1.846-.905,2.387,2.387,0,0,0-2.312,1.494V14.3a2.454,2.454,0,0,0,2.329,1.494,2.112,2.112,0,0,0,1.819-.905A4.672,4.672,0,0,0,115.284,12.166ZM120.725,17H119.1V7.49h1.626ZM118.967,4.968a.971.971,0,0,1,.242-.668.907.907,0,0,1,.716-.272.922.922,0,0,1,.721.272.96.96,0,0,1,.246.668.929.929,0,0,1-.246.659.938.938,0,0,1-.721.264.924.924,0,0,1-.716-.264A.938.938,0,0,1,118.967,4.968ZM125.093,17h-1.626V3.5h1.626Zm6.548.176a4.155,4.155,0,0,1-3.146-1.27,4.714,4.714,0,0,1-1.213-3.4v-.3a5.707,5.707,0,0,1,.541-2.527,4.217,4.217,0,0,1,1.512-1.74,3.8,3.8,0,0,1,2.1-.628,3.562,3.562,0,0,1,2.883,1.222,5.289,5.289,0,0,1,1.028,3.5v.677h-6.442a3.38,3.38,0,0,0,.822,2.272,2.583,2.583,0,0,0,2,.866,2.832,2.832,0,0,0,1.459-.352,3.666,3.666,0,0,0,1.046-.932l.993.773A3.993,3.993,0,0,1,131.641,17.176Zm-.2-8.525a2.169,2.169,0,0,0-1.652.716,3.482,3.482,0,0,0-.826,2.008h4.764v-.123a3.1,3.1,0,0,0-.668-1.92A2.042,2.042,0,0,0,131.438,8.65Z" transform="translate(31 54)" fill="#111"/><path d="M96.906,5.583H92.793V17H91.114V5.583h-4.1V4.2h9.9ZM103.428,17a3.416,3.416,0,0,1-.229-1,3.628,3.628,0,0,1-2.707,1.178,3.357,3.357,0,0,1-2.307-.8,2.573,2.573,0,0,1-.9-2.017,2.688,2.688,0,0,1,1.129-2.307,5.325,5.325,0,0,1,3.177-.822h1.582v-.747a1.826,1.826,0,0,0-.51-1.358,2.049,2.049,0,0,0-1.5-.505,2.371,2.371,0,0,0-1.459.439,1.3,1.3,0,0,0-.589,1.063H97.478a2.244,2.244,0,0,1,.505-1.375A3.449,3.449,0,0,1,99.354,7.7a4.613,4.613,0,0,1,1.9-.387,3.759,3.759,0,0,1,2.575.822A2.964,2.964,0,0,1,104.8,10.4v4.377a5.351,5.351,0,0,0,.334,2.083V17Zm-2.7-1.239a2.858,2.858,0,0,0,1.45-.4,2.392,2.392,0,0,0,.993-1.028V12.386H101.9q-2.988,0-2.988,1.749a1.48,1.48,0,0,0,.51,1.2A1.959,1.959,0,0,0,100.729,15.761Zm14.669-3.41a5.654,5.654,0,0,1-1,3.5,3.2,3.2,0,0,1-2.689,1.323,3.315,3.315,0,0,1-2.786-1.274l-.079,1.1h-1.494V3.5h1.626V8.536a3.3,3.3,0,0,1,2.716-1.222,3.221,3.221,0,0,1,2.72,1.31,5.824,5.824,0,0,1,.989,3.586Zm-1.626-.185a4.394,4.394,0,0,0-.642-2.566,2.124,2.124,0,0,0-1.846-.905,2.387,2.387,0,0,0-2.312,1.494V14.3A2.454,2.454,0,0,0,111.3,15.8a2.112,2.112,0,0,0,1.819-.905A4.672,4.672,0,0,0,113.772,12.166ZM119.213,17h-1.626V3.5h1.626Zm6.548.176a4.155,4.155,0,0,1-3.146-1.27,4.714,4.714,0,0,1-1.213-3.4v-.3a5.707,5.707,0,0,1,.541-2.527,4.217,4.217,0,0,1,1.512-1.74,3.8,3.8,0,0,1,2.1-.628,3.562,3.562,0,0,1,2.883,1.222,5.289,5.289,0,0,1,1.028,3.5v.677h-6.442a3.38,3.38,0,0,0,.822,2.272,2.583,2.583,0,0,0,2,.866,2.832,2.832,0,0,0,1.459-.352,3.666,3.666,0,0,0,1.046-.932l.993.773A3.993,3.993,0,0,1,125.761,17.176Zm-.2-8.525a2.169,2.169,0,0,0-1.652.716,3.482,3.482,0,0,0-.826,2.008h4.764v-.123a3.1,3.1,0,0,0-.668-1.92A2.042,2.042,0,0,0,125.559,8.65Zm8-3.463v2.3h1.775V8.747h-1.775v5.9a1.32,1.32,0,0,0,.237.858,1,1,0,0,0,.809.286,3.937,3.937,0,0,0,.773-.105V17a4.742,4.742,0,0,1-1.248.175,2.025,2.025,0,0,1-1.644-.659,2.832,2.832,0,0,1-.554-1.872v-5.9H130.2V7.49h1.731v-2.3Z" transform="translate(31 101)" fill="#111"/><path d="M6,0H568V32H6a6,6,0,0,1-6-6V6A6,6,0,0,1,6,0Z" transform="translate(192)" fill="#68b300"/><path d="M37.609,5.39,32.494,17H30.253L35.359,5.917H28.741V4.2h8.868Zm7.77,6.258a3.491,3.491,0,0,1-5.194-.048,4.642,4.642,0,0,1-1-3.107,5.094,5.094,0,0,1,.51-2.294,3.8,3.8,0,0,1,1.45-1.6,4.115,4.115,0,0,1,2.18-.571A3.7,3.7,0,0,1,46.39,5.469a6.071,6.071,0,0,1,1.134,3.858v.6a7.885,7.885,0,0,1-1.564,5.282,5.889,5.889,0,0,1-4.667,1.846h-.255V15.286h.308a4.373,4.373,0,0,0,2.9-.91A3.792,3.792,0,0,0,45.379,11.647Zm-2.057-.536a2.155,2.155,0,0,0,1.2-.369,2.432,2.432,0,0,0,.87-1.02V8.888a4.009,4.009,0,0,0-.58-2.276,1.748,1.748,0,0,0-1.5-.861,1.727,1.727,0,0,0-1.472.76,3.2,3.2,0,0,0-.549,1.92,3.156,3.156,0,0,0,.554,1.942A1.754,1.754,0,0,0,43.322,11.111Zm6.671,8.771L48.842,19.2a6.21,6.21,0,0,0,.7-1.393,4.157,4.157,0,0,0,.2-1.208V14.935h1.925l-.009,1.538a4.287,4.287,0,0,1-.47,1.868A4.64,4.64,0,0,1,49.993,19.883ZM61.85,11.612a6.979,6.979,0,0,1-1.033,4.162,3.647,3.647,0,0,1-3.142,1.4,3.7,3.7,0,0,1-3.125-1.367,6.683,6.683,0,0,1-1.077-4.047V9.547a6.874,6.874,0,0,1,1.033-4.14,4.3,4.3,0,0,1,6.284-.035A6.664,6.664,0,0,1,61.85,9.4ZM59.714,9.222a5.415,5.415,0,0,0-.492-2.641,1.881,1.881,0,0,0-3.1-.044A5,5,0,0,0,55.6,9.02v2.9a5.555,5.555,0,0,0,.5,2.672,1.683,1.683,0,0,0,1.573.879,1.653,1.653,0,0,0,1.521-.813,5.226,5.226,0,0,0,.519-2.544Zm3.938-2.558a2.568,2.568,0,0,1,.747-1.9,2.975,2.975,0,0,1,3.933,0,2.633,2.633,0,0,1,.743,1.947v.633a2.551,2.551,0,0,1-.743,1.89,2.653,2.653,0,0,1-1.956.738,2.737,2.737,0,0,1-1.956-.725,2.559,2.559,0,0,1-.769-1.956Zm1.494.673a1.41,1.41,0,0,0,.338.983,1.145,1.145,0,0,0,.892.374,1.121,1.121,0,0,0,.879-.374A1.474,1.474,0,0,0,67.589,7.3V6.659a1.426,1.426,0,0,0-.338-.987,1.138,1.138,0,0,0-.892-.379,1.106,1.106,0,0,0-.883.383,1.493,1.493,0,0,0-.33,1.009ZM69.8,13.862a2.516,2.516,0,0,1,.765-1.907,2.98,2.98,0,0,1,3.907,0,2.6,2.6,0,0,1,.76,1.969v.624a2.571,2.571,0,0,1-.734,1.885,2.637,2.637,0,0,1-1.964.743,2.715,2.715,0,0,1-1.982-.734A2.586,2.586,0,0,1,69.8,14.5Zm1.494.677a1.4,1.4,0,0,0,.347.98,1.151,1.151,0,0,0,.892.382,1.115,1.115,0,0,0,.883-.365,1.5,1.5,0,0,0,.321-1.024v-.659a1.389,1.389,0,0,0-.343-.984,1.236,1.236,0,0,0-1.762,0,1.452,1.452,0,0,0-.338,1.02Zm-4.482,1.5-1.1-.633,6.249-10,1.1.633Z" transform="translate(673 6)" fill="#fff"/><path d="M0,0H52a6,6,0,0,1,6,6V26a6,6,0,0,1-6,6H0Z" transform="translate(837)" fill="#c02"/><path d="M19.379,11.647a3.491,3.491,0,0,1-5.194-.048,4.642,4.642,0,0,1-1-3.107,5.094,5.094,0,0,1,.51-2.294,3.8,3.8,0,0,1,1.45-1.6,4.115,4.115,0,0,1,2.18-.571A3.7,3.7,0,0,1,20.39,5.469a6.071,6.071,0,0,1,1.134,3.858v.6a7.885,7.885,0,0,1-1.564,5.282,5.889,5.889,0,0,1-4.667,1.846h-.255V15.286h.308a4.373,4.373,0,0,0,2.9-.91A3.792,3.792,0,0,0,19.379,11.647Zm-2.057-.536a2.155,2.155,0,0,0,1.2-.369,2.432,2.432,0,0,0,.87-1.02V8.888a4.009,4.009,0,0,0-.58-2.276,1.748,1.748,0,0,0-1.5-.861,1.727,1.727,0,0,0-1.472.76,3.2,3.2,0,0,0-.549,1.92,3.156,3.156,0,0,0,.554,1.942A1.754,1.754,0,0,0,17.322,11.111Zm6.671,8.771L22.842,19.2a6.21,6.21,0,0,0,.7-1.393,4.157,4.157,0,0,0,.2-1.208V14.935h1.925l-.009,1.538a4.287,4.287,0,0,1-.47,1.868A4.64,4.64,0,0,1,23.993,19.883Zm10.74-7.444h1.591v1.714H34.733V17H32.6V14.152H27.069l-.062-1.3L32.527,4.2h2.206Zm-5.484,0H32.6V7.095l-.158.281Zm8.4-5.774a2.568,2.568,0,0,1,.747-1.9,2.975,2.975,0,0,1,3.933,0,2.633,2.633,0,0,1,.743,1.947v.633a2.551,2.551,0,0,1-.743,1.89,2.653,2.653,0,0,1-1.956.738,2.737,2.737,0,0,1-1.956-.725,2.559,2.559,0,0,1-.769-1.956Zm1.494.673a1.41,1.41,0,0,0,.338.983,1.145,1.145,0,0,0,.892.374,1.121,1.121,0,0,0,.879-.374A1.474,1.474,0,0,0,41.589,7.3V6.659a1.426,1.426,0,0,0-.338-.987,1.138,1.138,0,0,0-.892-.379,1.106,1.106,0,0,0-.883.383,1.493,1.493,0,0,0-.33,1.009ZM43.8,13.862a2.516,2.516,0,0,1,.765-1.907,2.98,2.98,0,0,1,3.907,0,2.6,2.6,0,0,1,.76,1.969v.624a2.571,2.571,0,0,1-.734,1.885,2.637,2.637,0,0,1-1.964.743,2.715,2.715,0,0,1-1.982-.734A2.586,2.586,0,0,1,43.8,14.5Zm1.494.677a1.4,1.4,0,0,0,.347.98,1.151,1.151,0,0,0,.892.382,1.115,1.115,0,0,0,.883-.365,1.5,1.5,0,0,0,.321-1.024v-.659a1.389,1.389,0,0,0-.343-.984,1.236,1.236,0,0,0-1.762,0,1.452,1.452,0,0,0-.338,1.02Zm-4.482,1.5-1.1-.633,6.249-10,1.1.633Z" transform="translate(838 6)" fill="#fff"/><path d="M6,0H446V32H6a6,6,0,0,1-6-6V6A6,6,0,0,1,6,0Z" transform="translate(192 96)" fill="#68b300"/><path d="M19.737,4.142V5.908h-.264a4.239,4.239,0,0,0-2.865.984,4.119,4.119,0,0,0-1.274,2.716,3.468,3.468,0,0,1,2.628-1.081,3.276,3.276,0,0,1,2.676,1.2,4.708,4.708,0,0,1,.98,3.085,4.4,4.4,0,0,1-1.147,3.16,3.959,3.959,0,0,1-3.01,1.208,3.867,3.867,0,0,1-3.107-1.415,5.566,5.566,0,0,1-1.191-3.709v-.729A7.832,7.832,0,0,1,14.8,6.049a5.877,5.877,0,0,1,4.715-1.907ZM17.443,10.25a2.249,2.249,0,0,0-1.288.4A2.312,2.312,0,0,0,15.3,11.7v.65a3.831,3.831,0,0,0,.6,2.263,1.823,1.823,0,0,0,1.547.839,1.8,1.8,0,0,0,1.5-.712,2.965,2.965,0,0,0,.554-1.872,3.007,3.007,0,0,0-.562-1.89A1.793,1.793,0,0,0,17.443,10.25Zm14.4-4.86L26.725,17H24.483L29.59,5.917H22.972V4.2H31.84Zm2.153,14.493L32.842,19.2a6.21,6.21,0,0,0,.7-1.393,4.157,4.157,0,0,0,.2-1.208V14.935h1.925l-.009,1.538a4.287,4.287,0,0,1-.47,1.868A4.64,4.64,0,0,1,33.993,19.883ZM44.153,4.142V5.908H43.89a4.239,4.239,0,0,0-2.865.984A4.119,4.119,0,0,0,39.75,9.608a3.468,3.468,0,0,1,2.628-1.081,3.276,3.276,0,0,1,2.676,1.2,4.708,4.708,0,0,1,.98,3.085,4.4,4.4,0,0,1-1.147,3.16,3.959,3.959,0,0,1-3.01,1.208,3.867,3.867,0,0,1-3.107-1.415,5.566,5.566,0,0,1-1.191-3.709v-.729a7.832,7.832,0,0,1,1.639-5.273,5.877,5.877,0,0,1,4.715-1.907ZM41.859,10.25a2.249,2.249,0,0,0-1.288.4,2.312,2.312,0,0,0-.857,1.055v.65a3.831,3.831,0,0,0,.6,2.263,1.823,1.823,0,0,0,1.547.839,1.8,1.8,0,0,0,1.5-.712,2.965,2.965,0,0,0,.554-1.872,3.007,3.007,0,0,0-.562-1.89A1.793,1.793,0,0,0,41.859,10.25Zm5.792-3.586a2.568,2.568,0,0,1,.747-1.9,2.975,2.975,0,0,1,3.933,0,2.633,2.633,0,0,1,.743,1.947v.633a2.551,2.551,0,0,1-.743,1.89,2.653,2.653,0,0,1-1.956.738,2.737,2.737,0,0,1-1.956-.725,2.559,2.559,0,0,1-.769-1.956Zm1.494.673a1.41,1.41,0,0,0,.338.983,1.145,1.145,0,0,0,.892.374,1.121,1.121,0,0,0,.879-.374A1.474,1.474,0,0,0,51.589,7.3V6.659a1.426,1.426,0,0,0-.338-.987,1.138,1.138,0,0,0-.892-.379,1.106,1.106,0,0,0-.883.383,1.493,1.493,0,0,0-.33,1.009ZM53.8,13.862a2.516,2.516,0,0,1,.765-1.907,2.98,2.98,0,0,1,3.907,0,2.6,2.6,0,0,1,.76,1.969v.624a2.571,2.571,0,0,1-.734,1.885,2.637,2.637,0,0,1-1.964.743,2.715,2.715,0,0,1-1.982-.734A2.586,2.586,0,0,1,53.8,14.5Zm1.494.677a1.4,1.4,0,0,0,.347.98,1.151,1.151,0,0,0,.892.382,1.115,1.115,0,0,0,.883-.365,1.5,1.5,0,0,0,.321-1.024v-.659a1.389,1.389,0,0,0-.343-.984,1.236,1.236,0,0,0-1.762,0,1.452,1.452,0,0,0-.338,1.02Zm-4.482,1.5-1.1-.633,6.249-10,1.1.633Z" transform="translate(571 101)" fill="#fff"/><path d="M0,0H149V32H0Z" transform="translate(638 96)" fill="#ffbf00"/><path d="M0,0H103a6,6,0,0,1,6,6V26a6,6,0,0,1-6,6H0Z" transform="translate(787 96)" fill="#c02"/><path d="M22.876,17H20.749V6.719l-3.138,1.07V6L22.6,4.159h.272ZM35.84,5.39,30.725,17H28.483L33.59,5.917H26.972V4.2H35.84Zm2.153,14.493L36.842,19.2a6.21,6.21,0,0,0,.7-1.393,4.157,4.157,0,0,0,.2-1.208V14.935h1.925l-.009,1.538a4.287,4.287,0,0,1-.47,1.868A4.64,4.64,0,0,1,37.993,19.883Zm11.575-12.3a2.975,2.975,0,0,1-.483,1.674,3.353,3.353,0,0,1-1.318,1.156,3.652,3.652,0,0,1,1.542,1.274,3.215,3.215,0,0,1,.541,1.828,3.357,3.357,0,0,1-1.143,2.676,5.182,5.182,0,0,1-6.1,0,3.355,3.355,0,0,1-1.147-2.672,3.252,3.252,0,0,1,.545-1.846,3.5,3.5,0,0,1,1.529-1.257,3.334,3.334,0,0,1-1.305-1.156,3,3,0,0,1-.479-1.674A3.329,3.329,0,0,1,42.81,4.985a4.724,4.724,0,0,1,5.7,0A3.329,3.329,0,0,1,49.568,7.578Zm-1.854,5.827a2.11,2.11,0,0,0-.567-1.534,1.993,1.993,0,0,0-1.5-.584,1.971,1.971,0,0,0-1.49.58,2.125,2.125,0,0,0-.558,1.538,2.059,2.059,0,0,0,.549,1.5,2.341,2.341,0,0,0,3.023.018A2.065,2.065,0,0,0,47.714,13.405Zm-.272-5.748a1.986,1.986,0,0,0-.483-1.375,1.857,1.857,0,0,0-2.593-.026,1.987,1.987,0,0,0-.475,1.4,1.979,1.979,0,0,0,.479,1.4,1.88,1.88,0,0,0,2.593,0A1.979,1.979,0,0,0,47.441,7.657Zm4.21-.993a2.568,2.568,0,0,1,.747-1.9,2.975,2.975,0,0,1,3.933,0,2.633,2.633,0,0,1,.743,1.947v.633a2.551,2.551,0,0,1-.743,1.89,2.653,2.653,0,0,1-1.956.738,2.737,2.737,0,0,1-1.956-.725,2.559,2.559,0,0,1-.769-1.956Zm1.494.673a1.41,1.41,0,0,0,.338.983,1.145,1.145,0,0,0,.892.374,1.121,1.121,0,0,0,.879-.374A1.474,1.474,0,0,0,55.589,7.3V6.659a1.426,1.426,0,0,0-.338-.987,1.138,1.138,0,0,0-.892-.379,1.106,1.106,0,0,0-.883.383,1.493,1.493,0,0,0-.33,1.009ZM57.8,13.862a2.516,2.516,0,0,1,.765-1.907,2.98,2.98,0,0,1,3.907,0,2.6,2.6,0,0,1,.76,1.969v.624a2.571,2.571,0,0,1-.734,1.885,2.637,2.637,0,0,1-1.964.743,2.715,2.715,0,0,1-1.982-.734A2.586,2.586,0,0,1,57.8,14.5Zm1.494.677a1.4,1.4,0,0,0,.347.98,1.151,1.151,0,0,0,.892.382,1.115,1.115,0,0,0,.883-.365,1.5,1.5,0,0,0,.321-1.024v-.659a1.389,1.389,0,0,0-.343-.984,1.236,1.236,0,0,0-1.762,0,1.452,1.452,0,0,0-.338,1.02Zm-4.482,1.5-1.1-.633,6.249-10,1.1.633Z" transform="translate(716 102)" fill="#fff"/><path d="M34.876,17H32.749V6.719l-3.138,1.07V6L34.6,4.159h.272Zm11.672-4.562h1.591v1.714H46.548V17H44.412V14.152H38.884l-.062-1.3L44.342,4.2h2.206Zm-5.484,0h3.349V7.095l-.158.281Zm8.93,7.444L48.842,19.2a6.21,6.21,0,0,0,.7-1.393,4.157,4.157,0,0,0,.2-1.208V14.935h1.925l-.009,1.538a4.287,4.287,0,0,1-.47,1.868A4.64,4.64,0,0,1,49.993,19.883Zm11.575-12.3a2.975,2.975,0,0,1-.483,1.674,3.353,3.353,0,0,1-1.318,1.156,3.652,3.652,0,0,1,1.542,1.274,3.215,3.215,0,0,1,.541,1.828,3.357,3.357,0,0,1-1.143,2.676,5.182,5.182,0,0,1-6.1,0,3.355,3.355,0,0,1-1.147-2.672,3.252,3.252,0,0,1,.545-1.846,3.5,3.5,0,0,1,1.529-1.257,3.334,3.334,0,0,1-1.305-1.156,3,3,0,0,1-.479-1.674A3.329,3.329,0,0,1,54.81,4.985a4.724,4.724,0,0,1,5.7,0A3.329,3.329,0,0,1,61.568,7.578Zm-1.854,5.827a2.11,2.11,0,0,0-.567-1.534,1.993,1.993,0,0,0-1.5-.584,1.971,1.971,0,0,0-1.49.58,2.125,2.125,0,0,0-.558,1.538,2.059,2.059,0,0,0,.549,1.5,2.341,2.341,0,0,0,3.023.018A2.065,2.065,0,0,0,59.714,13.405Zm-.272-5.748a1.986,1.986,0,0,0-.483-1.375,1.857,1.857,0,0,0-2.593-.026,1.987,1.987,0,0,0-.475,1.4,1.979,1.979,0,0,0,.479,1.4,1.88,1.88,0,0,0,2.593,0A1.979,1.979,0,0,0,59.441,7.657Zm4.21-.993a2.568,2.568,0,0,1,.747-1.9,2.975,2.975,0,0,1,3.933,0,2.633,2.633,0,0,1,.743,1.947v.633a2.551,2.551,0,0,1-.743,1.89,2.653,2.653,0,0,1-1.956.738,2.737,2.737,0,0,1-1.956-.725,2.559,2.559,0,0,1-.769-1.956Zm1.494.673a1.41,1.41,0,0,0,.338.983,1.145,1.145,0,0,0,.892.374,1.121,1.121,0,0,0,.879-.374A1.474,1.474,0,0,0,67.589,7.3V6.659a1.426,1.426,0,0,0-.338-.987,1.138,1.138,0,0,0-.892-.379,1.106,1.106,0,0,0-.883.383,1.493,1.493,0,0,0-.33,1.009ZM69.8,13.862a2.516,2.516,0,0,1,.765-1.907,2.98,2.98,0,0,1,3.907,0,2.6,2.6,0,0,1,.76,1.969v.624a2.571,2.571,0,0,1-.734,1.885,2.637,2.637,0,0,1-1.964.743,2.715,2.715,0,0,1-1.982-.734A2.586,2.586,0,0,1,69.8,14.5Zm1.494.677a1.4,1.4,0,0,0,.347.98,1.151,1.151,0,0,0,.892.382,1.115,1.115,0,0,0,.883-.365,1.5,1.5,0,0,0,.321-1.024v-.659a1.389,1.389,0,0,0-.343-.984,1.236,1.236,0,0,0-1.762,0,1.452,1.452,0,0,0-.338,1.02Zm-4.482,1.5-1.1-.633,6.249-10,1.1.633Z" transform="translate(813 102)" fill="#fff"/><path d="M6,0H524V32H6a6,6,0,0,1-6-6V6A6,6,0,0,1,6,0Z" transform="translate(192 48)" fill="#68b300"/><path d="M21.609,5.39,16.494,17H14.253L19.359,5.917H12.741V4.2h8.868Zm8.938,7.049h1.591v1.714H30.548V17H28.412V14.152H22.884l-.062-1.3L28.342,4.2h2.206Zm-5.484,0h3.349V7.095l-.158.281Zm8.93,7.444L32.842,19.2a6.21,6.21,0,0,0,.7-1.393,4.157,4.157,0,0,0,.2-1.208V14.935h1.925l-.009,1.538a4.287,4.287,0,0,1-.47,1.868A4.64,4.64,0,0,1,33.993,19.883Zm4.087-9.229L38.774,4.2h6.873V6.049h-5.1L40.2,9.107a3.951,3.951,0,0,1,2-.51,3.565,3.565,0,0,1,2.843,1.169,4.632,4.632,0,0,1,1.015,3.146,4.264,4.264,0,0,1-1.125,3.107,4.106,4.106,0,0,1-3.085,1.156,4.3,4.3,0,0,1-2.914-1,3.606,3.606,0,0,1-1.252-2.632H39.75a2.256,2.256,0,0,0,.668,1.428,2.032,2.032,0,0,0,1.424.5,1.836,1.836,0,0,0,1.534-.7,3.035,3.035,0,0,0,.549-1.916A2.682,2.682,0,0,0,43.318,11a2.121,2.121,0,0,0-1.67-.681,2.333,2.333,0,0,0-1.863.756Zm9.571-3.99a2.568,2.568,0,0,1,.747-1.9,2.975,2.975,0,0,1,3.933,0,2.633,2.633,0,0,1,.743,1.947v.633a2.551,2.551,0,0,1-.743,1.89,2.653,2.653,0,0,1-1.956.738,2.737,2.737,0,0,1-1.956-.725,2.559,2.559,0,0,1-.769-1.956Zm1.494.673a1.41,1.41,0,0,0,.338.983,1.145,1.145,0,0,0,.892.374,1.121,1.121,0,0,0,.879-.374A1.474,1.474,0,0,0,51.589,7.3V6.659a1.426,1.426,0,0,0-.338-.987,1.138,1.138,0,0,0-.892-.379,1.106,1.106,0,0,0-.883.383,1.493,1.493,0,0,0-.33,1.009ZM53.8,13.862a2.516,2.516,0,0,1,.765-1.907,2.98,2.98,0,0,1,3.907,0,2.6,2.6,0,0,1,.76,1.969v.624a2.571,2.571,0,0,1-.734,1.885,2.637,2.637,0,0,1-1.964.743,2.715,2.715,0,0,1-1.982-.734A2.586,2.586,0,0,1,53.8,14.5Zm1.494.677a1.4,1.4,0,0,0,.347.98,1.151,1.151,0,0,0,.892.382,1.115,1.115,0,0,0,.883-.365,1.5,1.5,0,0,0,.321-1.024v-.659a1.389,1.389,0,0,0-.343-.984,1.236,1.236,0,0,0-1.762,0,1.452,1.452,0,0,0-.338,1.02Zm-4.482,1.5-1.1-.633,6.249-10,1.1.633Z" transform="translate(648 54)" fill="#fff"/><path d="M0,0H116V32H0Z" transform="translate(716 48)" fill="#ffbf00"/><path d="M0,0H63a6,6,0,0,1,6,6V26a6,6,0,0,1-6,6H0Z" transform="translate(827 48)" fill="#c02"/><path d="M22.876,17H20.749V6.719l-3.138,1.07V6L22.6,4.159h.272Zm11.672-4.562h1.591v1.714H34.548V17H32.412V14.152H26.884l-.062-1.3L32.342,4.2h2.206Zm-5.484,0h3.349V7.095l-.158.281Zm8.93,7.444L36.842,19.2a6.21,6.21,0,0,0,.7-1.393,4.157,4.157,0,0,0,.2-1.208V14.935h1.925l-.009,1.538a4.287,4.287,0,0,1-.47,1.868A4.64,4.64,0,0,1,37.993,19.883Zm11.575-12.3a2.975,2.975,0,0,1-.483,1.674,3.353,3.353,0,0,1-1.318,1.156,3.652,3.652,0,0,1,1.542,1.274,3.215,3.215,0,0,1,.541,1.828,3.357,3.357,0,0,1-1.143,2.676,5.182,5.182,0,0,1-6.1,0,3.355,3.355,0,0,1-1.147-2.672,3.252,3.252,0,0,1,.545-1.846,3.5,3.5,0,0,1,1.529-1.257,3.334,3.334,0,0,1-1.305-1.156,3,3,0,0,1-.479-1.674A3.329,3.329,0,0,1,42.81,4.985a4.724,4.724,0,0,1,5.7,0A3.329,3.329,0,0,1,49.568,7.578Zm-1.854,5.827a2.11,2.11,0,0,0-.567-1.534,1.993,1.993,0,0,0-1.5-.584,1.971,1.971,0,0,0-1.49.58,2.125,2.125,0,0,0-.558,1.538,2.059,2.059,0,0,0,.549,1.5,2.341,2.341,0,0,0,3.023.018A2.065,2.065,0,0,0,47.714,13.405Zm-.272-5.748a1.986,1.986,0,0,0-.483-1.375,1.857,1.857,0,0,0-2.593-.026,1.987,1.987,0,0,0-.475,1.4,1.979,1.979,0,0,0,.479,1.4,1.88,1.88,0,0,0,2.593,0A1.979,1.979,0,0,0,47.441,7.657Zm4.21-.993a2.568,2.568,0,0,1,.747-1.9,2.975,2.975,0,0,1,3.933,0,2.633,2.633,0,0,1,.743,1.947v.633a2.551,2.551,0,0,1-.743,1.89,2.653,2.653,0,0,1-1.956.738,2.737,2.737,0,0,1-1.956-.725,2.559,2.559,0,0,1-.769-1.956Zm1.494.673a1.41,1.41,0,0,0,.338.983,1.145,1.145,0,0,0,.892.374,1.121,1.121,0,0,0,.879-.374A1.474,1.474,0,0,0,55.589,7.3V6.659a1.426,1.426,0,0,0-.338-.987,1.138,1.138,0,0,0-.892-.379,1.106,1.106,0,0,0-.883.383,1.493,1.493,0,0,0-.33,1.009ZM57.8,13.862a2.516,2.516,0,0,1,.765-1.907,2.98,2.98,0,0,1,3.907,0,2.6,2.6,0,0,1,.76,1.969v.624a2.571,2.571,0,0,1-.734,1.885,2.637,2.637,0,0,1-1.964.743,2.715,2.715,0,0,1-1.982-.734A2.586,2.586,0,0,1,57.8,14.5Zm1.494.677a1.4,1.4,0,0,0,.347.98,1.151,1.151,0,0,0,.892.382,1.115,1.115,0,0,0,.883-.365,1.5,1.5,0,0,0,.321-1.024v-.659a1.389,1.389,0,0,0-.343-.984,1.236,1.236,0,0,0-1.762,0,1.452,1.452,0,0,0-.338,1.02Zm-4.482,1.5-1.1-.633,6.249-10,1.1.633Z" transform="translate(756 54)" fill="#fff"/><path d="M19.876,17H17.749V6.719l-3.138,1.07V6L19.6,4.159h.272Zm12.788-5.388a6.979,6.979,0,0,1-1.033,4.162,3.647,3.647,0,0,1-3.142,1.4,3.7,3.7,0,0,1-3.125-1.367,6.683,6.683,0,0,1-1.077-4.047V9.547a6.874,6.874,0,0,1,1.033-4.14,3.681,3.681,0,0,1,3.151-1.38A3.7,3.7,0,0,1,31.6,5.372,6.664,6.664,0,0,1,32.664,9.4ZM30.528,9.222a5.415,5.415,0,0,0-.492-2.641,1.881,1.881,0,0,0-3.1-.044,5,5,0,0,0-.519,2.483v2.9a5.555,5.555,0,0,0,.5,2.672,1.683,1.683,0,0,0,1.573.879,1.653,1.653,0,0,0,1.521-.813,5.226,5.226,0,0,0,.519-2.544Zm4.465,10.661L33.842,19.2a6.21,6.21,0,0,0,.7-1.393,4.157,4.157,0,0,0,.2-1.208V14.935h1.925l-.009,1.538a4.287,4.287,0,0,1-.47,1.868A4.64,4.64,0,0,1,34.993,19.883ZM47.025,5.39,41.91,17H39.669L44.775,5.917H38.157V4.2h8.868Zm1.626,1.274a2.568,2.568,0,0,1,.747-1.9,2.975,2.975,0,0,1,3.933,0,2.633,2.633,0,0,1,.743,1.947v.633a2.551,2.551,0,0,1-.743,1.89,2.653,2.653,0,0,1-1.956.738,2.737,2.737,0,0,1-1.956-.725,2.559,2.559,0,0,1-.769-1.956Zm1.494.673a1.41,1.41,0,0,0,.338.983,1.145,1.145,0,0,0,.892.374,1.121,1.121,0,0,0,.879-.374A1.474,1.474,0,0,0,52.589,7.3V6.659a1.426,1.426,0,0,0-.338-.987,1.138,1.138,0,0,0-.892-.379,1.106,1.106,0,0,0-.883.383,1.493,1.493,0,0,0-.33,1.009ZM54.8,13.862a2.516,2.516,0,0,1,.765-1.907,2.98,2.98,0,0,1,3.907,0,2.6,2.6,0,0,1,.76,1.969v.624a2.571,2.571,0,0,1-.734,1.885,2.637,2.637,0,0,1-1.964.743,2.715,2.715,0,0,1-1.982-.734A2.586,2.586,0,0,1,54.8,14.5Zm1.494.677a1.4,1.4,0,0,0,.347.98,1.151,1.151,0,0,0,.892.382,1.115,1.115,0,0,0,.883-.365,1.5,1.5,0,0,0,.321-1.024v-.659a1.389,1.389,0,0,0-.343-.984,1.236,1.236,0,0,0-1.762,0,1.452,1.452,0,0,0-.338,1.02Zm-4.482,1.5-1.1-.633,6.249-10,1.1.633Z" transform="translate(827 54)" fill="#fff"/><path d="M0,0H77V32H0Z" transform="translate(760)" fill="#ffbf00"/><path d="M21.876,17H19.749V6.719l-3.138,1.07V6L21.6,4.159h.272Zm10.23,0H29.979V6.719l-3.138,1.07V6l4.992-1.837h.272Zm4.887,2.883L35.842,19.2a6.21,6.21,0,0,0,.7-1.393,4.157,4.157,0,0,0,.2-1.208V14.935h1.925l-.009,1.538a4.287,4.287,0,0,1-.47,1.868A4.64,4.64,0,0,1,36.993,19.883ZM47.153,4.142V5.908H46.89a4.239,4.239,0,0,0-2.865.984A4.119,4.119,0,0,0,42.75,9.608a3.468,3.468,0,0,1,2.628-1.081,3.276,3.276,0,0,1,2.676,1.2,4.708,4.708,0,0,1,.98,3.085,4.4,4.4,0,0,1-1.147,3.16,3.959,3.959,0,0,1-3.01,1.208,3.867,3.867,0,0,1-3.107-1.415,5.566,5.566,0,0,1-1.191-3.709v-.729a7.832,7.832,0,0,1,1.639-5.273,5.877,5.877,0,0,1,4.715-1.907ZM44.859,10.25a2.249,2.249,0,0,0-1.288.4,2.312,2.312,0,0,0-.857,1.055v.65a3.831,3.831,0,0,0,.6,2.263,1.823,1.823,0,0,0,1.547.839,1.8,1.8,0,0,0,1.5-.712,2.965,2.965,0,0,0,.554-1.872,3.007,3.007,0,0,0-.562-1.89A1.793,1.793,0,0,0,44.859,10.25Zm5.792-3.586a2.568,2.568,0,0,1,.747-1.9,2.975,2.975,0,0,1,3.933,0,2.633,2.633,0,0,1,.743,1.947v.633a2.551,2.551,0,0,1-.743,1.89,2.653,2.653,0,0,1-1.956.738,2.737,2.737,0,0,1-1.956-.725,2.559,2.559,0,0,1-.769-1.956Zm1.494.673a1.41,1.41,0,0,0,.338.983,1.145,1.145,0,0,0,.892.374,1.121,1.121,0,0,0,.879-.374A1.474,1.474,0,0,0,54.589,7.3V6.659a1.426,1.426,0,0,0-.338-.987,1.138,1.138,0,0,0-.892-.379,1.106,1.106,0,0,0-.883.383,1.493,1.493,0,0,0-.33,1.009ZM56.8,13.862a2.516,2.516,0,0,1,.765-1.907,2.98,2.98,0,0,1,3.907,0,2.6,2.6,0,0,1,.76,1.969v.624a2.571,2.571,0,0,1-.734,1.885,2.637,2.637,0,0,1-1.964.743,2.715,2.715,0,0,1-1.982-.734A2.586,2.586,0,0,1,56.8,14.5Zm1.494.677a1.4,1.4,0,0,0,.347.98,1.151,1.151,0,0,0,.892.382,1.115,1.115,0,0,0,.883-.365,1.5,1.5,0,0,0,.321-1.024v-.659a1.389,1.389,0,0,0-.343-.984,1.236,1.236,0,0,0-1.762,0,1.452,1.452,0,0,0-.338,1.02Zm-4.482,1.5-1.1-.633,6.249-10,1.1.633Z" transform="translate(762 6)" fill="#fff"/></g><path d="M82.078,39.513c0,2.494-2.4,4.806-6.983,4.806A13.37,13.37,0,0,1,69.2,42.96l1.088-1.9a10.189,10.189,0,0,0,4.9,1.224c2.176,0,3.537-.907,3.537-2.358,0-1.088-.816-1.814-2.675-2.176l-1.9-.453A5.712,5.712,0,0,1,70.7,35.478a3.242,3.242,0,0,1-.725-2.176c0-2.63,2.494-4.444,6.076-4.444a11.23,11.23,0,0,1,5.668,1.451l-1.36,1.768a8.722,8.722,0,0,0-4.217-1.088c-1.768,0-2.9.816-2.9,2.04,0,.952.635,1.406,2.358,1.859l2.131.5C80.264,35.886,82.078,37.246,82.078,39.513Zm19.135-4.262-2.131-.5c-1.768-.453-2.358-.907-2.358-1.859,0-1.224,1.179-2.04,2.9-2.04a8.6,8.6,0,0,1,4.217,1.088l1.36-1.768a11.152,11.152,0,0,0-5.668-1.36c-3.582,0-6.076,1.814-6.076,4.444a3.094,3.094,0,0,0,.725,2.176,5.7,5.7,0,0,0,3.491,1.814l1.9.453c1.859.408,2.675,1.088,2.675,2.176,0,1.5-1.315,2.358-3.537,2.358a10.689,10.689,0,0,1-4.852-1.224l-1.088,1.9a13.228,13.228,0,0,0,5.895,1.36c4.58,0,6.983-2.313,6.983-4.806C105.611,37.246,103.8,35.886,101.213,35.251ZM86.022,44h3.038V29.039H86.022Zm21.13-12.923h4.534V44h2.993V31.125h4.489l.408-2.086H107.2v2.04ZM151,35.8l4.534-6.8H152l-2.811,4.67-2.857-4.625H142.7l4.806,6.938-5.487,8.071h3.673l3.582-5.94,3.718,5.94h3.537ZM130.958,40.42,133.588,44h-3.537l-1.542-2.313a17.047,17.047,0,0,0-3.038-3.718,1.606,1.606,0,0,0-1.179-.453v6.529h-2.947V29.039h5.487c3.99,0,5.849,1.95,5.849,4.308a4.141,4.141,0,0,1-4.126,4.126h-.317A12.041,12.041,0,0,1,130.958,40.42Zm-2.176-5.26a2.348,2.348,0,0,0,.816-1.814c0-1.542-1-2.313-3.627-2.313h-1.678V35.8h1.542a4.616,4.616,0,0,0,2.947-.635Zm8.026,8.887h3.038V29.039h-3.083Zm54.322,11.109-8.842-8.842a12.506,12.506,0,1,1,2.176-2.222l8.887,8.887Zm-16.505-8.706a9.93,9.93,0,1,0-9.93-9.93,9.927,9.927,0,0,0,9.93,9.93Z" transform="translate(759.8 298.823)" fill="#ddd"/><path d="M6,0H975a6,6,0,0,1,6,6V56H0V6A6,6,0,0,1,6,0Z" fill="url(#a)"/><path d="M4.6,16.26V4.04H1.5V19h9.62V16.26Zm12.24-7.8a4.018,4.018,0,0,0-4.32,3.7l2.92.12a1.322,1.322,0,0,1,1.44-1.36c.9,0,1.34.56,1.34,1.6v.4l-1.84.1c-2.2.1-4.14.84-4.14,3.14,0,2,1.36,3.06,3.44,3.06a3.579,3.579,0,0,0,2.64-1.06V19h2.82V12.62C21.14,9.9,19.62,8.46,16.84,8.46Zm1.38,6.38v.44a1.658,1.658,0,0,1-1.86,1.68c-.7,0-1.2-.26-1.2-.94,0-.74.62-1.04,1.5-1.08ZM29.14,8.56A3.09,3.09,0,0,0,26.3,9.84V8.66H23.48V19H26.4V13.76c0-1.42,1.06-2.38,2.74-2.38Zm5.82-.1c-2.92,0-4.98,2.14-4.98,5.38s2.06,5.38,4.98,5.38a3.981,3.981,0,0,0,2.92-1.1V19.6a2.128,2.128,0,0,1-2.42,2.22c-1.32,0-2.18-.6-2.32-1.6l-2.9.1c.38,2.36,2.08,3.98,5.32,3.98,3.18,0,5.22-1.94,5.22-4.92V8.66H38.04V9.74A3.779,3.779,0,0,0,34.96,8.46Zm.48,2.5a2.378,2.378,0,0,1,2.44,2.64v.48a2.378,2.378,0,0,1-2.44,2.64c-1.46,0-2.5-1.04-2.5-2.88S33.98,10.96,35.44,10.96Zm17.24,3.8V13.6c0-3.22-1.96-5.14-4.94-5.14a5.008,5.008,0,0,0-5.26,5.38,5.039,5.039,0,0,0,5.34,5.38c2.42,0,4.4-1.4,4.76-3.36l-2.94-.14a1.769,1.769,0,0,1-1.9,1.14,2.021,2.021,0,0,1-2.16-2.1Zm-4.96-4.02a1.907,1.907,0,0,1,2.02,2.08H45.58A2.02,2.02,0,0,1,47.72,10.74ZM58.08,8.46c-2.6,0-4.14,1.28-4.14,3.26,0,2.12,1.46,2.58,3.66,3.14,1.5.36,1.88.56,1.88,1.18,0,.6-.5.94-1.3.94-1,0-1.46-.52-1.5-1.28l-2.92.16c.22,2.16,1.76,3.36,4.4,3.36,2.7,0,4.24-1.34,4.24-3.44,0-1.88-1.46-2.52-3.52-3.06-1.24-.32-2.02-.42-2.02-1.14,0-.56.4-.88,1.18-.88a1.193,1.193,0,0,1,1.32,1.26l2.9-.16C62.08,9.88,60.7,8.46,58.08,8.46Zm9.7,2.72h2.44V8.66H67.8l.02-3.42H64.9l-.02,3.42h-1.9v2.52h1.88l-.02,4.54c-.02,2.4,1.52,3.48,3.76,3.48a9.724,9.724,0,0,0,1.62-.12v-2.6a4.318,4.318,0,0,1-.9.1,1.426,1.426,0,0,1-1.56-1.56ZM83.02,3.82c-4.38,0-7.6,2.86-7.6,7.7,0,4.82,3.24,7.7,7.62,7.7,3.62,0,6.52-2.14,7.1-5.64L86.9,13.3a3.743,3.743,0,0,1-3.96,3.18c-2.46,0-4.38-1.72-4.38-4.96,0-3.04,1.74-4.96,4.36-4.96A3.779,3.779,0,0,1,86.9,9.8l3.22-.28C89.58,5.98,86.64,3.82,83.02,3.82ZM97.06,8.46a5.2,5.2,0,0,0-5.5,5.38,5.5,5.5,0,0,0,11,0A5.2,5.2,0,0,0,97.06,8.46Zm0,2.5c1.5,0,2.54,1.06,2.54,2.88,0,1.8-1.04,2.86-2.54,2.86s-2.54-1.06-2.54-2.86C94.52,12.02,95.56,10.96,97.06,10.96Zm12.9-2.5a3.122,3.122,0,0,0-2.78,1.26V8.66h-2.76V19h2.92V13.26a1.894,1.894,0,0,1,1.92-2.08c1.12,0,1.82.74,1.82,2.06V19H114V12.68A3.851,3.851,0,0,0,109.96,8.46Zm9.94,2.72h2.44V8.66h-2.42l.02-3.42h-2.92L117,8.66h-1.9v2.52h1.88l-.02,4.54c-.02,2.4,1.52,3.48,3.76,3.48a9.724,9.724,0,0,0,1.62-.12v-2.6a4.317,4.317,0,0,1-.9.1,1.426,1.426,0,0,1-1.56-1.56Zm13.68,3.58V13.6c0-3.22-1.96-5.14-4.94-5.14a5.008,5.008,0,0,0-5.26,5.38,5.039,5.039,0,0,0,5.34,5.38c2.42,0,4.4-1.4,4.76-3.36l-2.94-.14a1.769,1.769,0,0,1-1.9,1.14,2.021,2.021,0,0,1-2.16-2.1Zm-4.96-4.02a1.907,1.907,0,0,1,2.02,2.08h-4.16A2.02,2.02,0,0,1,128.62,10.74Zm12.36-2.28a3.122,3.122,0,0,0-2.78,1.26V8.66h-2.76V19h2.92V13.26a1.894,1.894,0,0,1,1.92-2.08c1.12,0,1.82.74,1.82,2.06V19h2.92V12.68A3.851,3.851,0,0,0,140.98,8.46Zm9.94,2.72h2.44V8.66h-2.42l.02-3.42h-2.92l-.02,3.42h-1.9v2.52H148l-.02,4.54c-.02,2.4,1.52,3.48,3.76,3.48a9.725,9.725,0,0,0,1.62-.12v-2.6a4.318,4.318,0,0,1-.9.1,1.426,1.426,0,0,1-1.56-1.56Zm8.88-7.84a4.011,4.011,0,0,0-4.3,4.26V8.66h-1.88v2.52h1.88V19h2.9V11.18h2.4V8.66h-2.4V7.52a1.613,1.613,0,0,1,1.74-1.64,5.634,5.634,0,0,1,.68.04V3.4A7.163,7.163,0,0,0,159.8,3.34ZM171.26,19V8.66h-2.92V14.5a1.772,1.772,0,0,1-1.76,2c-1.14,0-1.66-.7-1.66-1.96V8.66H162v6.5c0,2.52,1.44,4.06,3.82,4.06a2.956,2.956,0,0,0,2.68-1.26V19Zm5.34,0V3.46h-2.92V19Zm6.56-14.96V19h3.1V13.68h3.38a4.484,4.484,0,0,0,4.82-4.82,4.484,4.484,0,0,0-4.82-4.82Zm3.08,2.72h3a1.948,1.948,0,0,1,2.08,2.1,1.932,1.932,0,0,1-2.08,2.08h-3Zm13.58,1.7a4.018,4.018,0,0,0-4.32,3.7l2.92.12a1.322,1.322,0,0,1,1.44-1.36c.9,0,1.34.56,1.34,1.6v.4l-1.84.1c-2.2.1-4.14.84-4.14,3.14,0,2,1.36,3.06,3.44,3.06a3.579,3.579,0,0,0,2.64-1.06V19h2.82V12.62C204.12,9.9,202.6,8.46,199.82,8.46Zm1.38,6.38v.44a1.658,1.658,0,0,1-1.86,1.68c-.7,0-1.2-.26-1.2-.94,0-.74.62-1.04,1.5-1.08Zm6.72-11.32a1.758,1.758,0,0,0-1.74,1.76,1.75,1.75,0,0,0,3.5,0A1.75,1.75,0,0,0,207.92,3.52ZM209.38,19V8.66h-2.92V19Zm7.98-10.54a3.122,3.122,0,0,0-2.78,1.26V8.66h-2.76V19h2.92V13.26a1.894,1.894,0,0,1,1.92-2.08c1.12,0,1.82.74,1.82,2.06V19h2.92V12.68A3.851,3.851,0,0,0,217.36,8.46Zm9.94,2.72h2.44V8.66h-2.42l.02-3.42h-2.92l-.02,3.42h-1.9v2.52h1.88l-.02,4.54c-.02,2.4,1.52,3.48,3.76,3.48a9.725,9.725,0,0,0,1.62-.12v-2.6a4.318,4.318,0,0,1-.9.1,1.426,1.426,0,0,1-1.56-1.56Zm4.96-2.72a1.76,1.76,0,1,0,1.78,1.78A1.754,1.754,0,0,0,232.26,8.46Zm0,7.22a1.77,1.77,0,1,0,1.78,1.78A1.754,1.754,0,0,0,232.26,15.68ZM252.34,19V4.04h-3.08v9.28l-6.58-9.28h-2.62V19h3.1V9.74L249.72,19Zm6.52-10.54a4.018,4.018,0,0,0-4.32,3.7l2.92.12a1.322,1.322,0,0,1,1.44-1.36c.9,0,1.34.56,1.34,1.6v.4l-1.84.1c-2.2.1-4.14.84-4.14,3.14,0,2,1.36,3.06,3.44,3.06a3.579,3.579,0,0,0,2.64-1.06V19h2.82V12.62C263.16,9.9,261.64,8.46,258.86,8.46Zm1.38,6.38v.44a1.658,1.658,0,0,1-1.86,1.68c-.7,0-1.2-.26-1.2-.94,0-.74.62-1.04,1.5-1.08Zm10-6.38a5.018,5.018,0,0,0-5.3,5.38,5.038,5.038,0,0,0,5.3,5.38,4.671,4.671,0,0,0,4.9-3.94l-2.84-.26a1.919,1.919,0,0,1-2.06,1.68c-1.36,0-2.34-1.04-2.34-2.86,0-1.84.98-2.88,2.34-2.88a1.932,1.932,0,0,1,2.04,1.74l2.86-.24A4.67,4.67,0,0,0,270.24,8.46Zm9.56-5h-2.92V19h2.92V13.26a1.894,1.894,0,0,1,1.92-2.08c1.12,0,1.82.74,1.82,2.06V19h2.92V12.68a3.851,3.851,0,0,0-4.04-4.22,3.2,3.2,0,0,0-2.62,1.08Zm13.06.58V19H299a7.042,7.042,0,0,0,7.44-7.48c0-4.7-3.16-7.48-7.42-7.48Zm3.08,2.64h3.1c2.62,0,4.34,1.62,4.34,4.84s-1.74,4.84-4.34,4.84h-3.1Zm22.1,8.08V13.6c0-3.22-1.96-5.14-4.94-5.14a5.008,5.008,0,0,0-5.26,5.38,5.039,5.039,0,0,0,5.34,5.38c2.42,0,4.4-1.4,4.76-3.36L315,15.72a1.769,1.769,0,0,1-1.9,1.14,2.021,2.021,0,0,1-2.16-2.1Zm-4.96-4.02a1.907,1.907,0,0,1,2.02,2.08h-4.16A2.02,2.02,0,0,1,313.08,10.74ZM324.86,19l4.46-10.34H326.1l-2.4,6.08-2.42-6.08h-3.22L322.52,19Zm7-15.48a1.758,1.758,0,0,0-1.74,1.76,1.75,1.75,0,0,0,3.5,0A1.75,1.75,0,0,0,331.86,3.52ZM333.32,19V8.66H330.4V19ZM340.5,8.46a5.018,5.018,0,0,0-5.3,5.38,5.038,5.038,0,0,0,5.3,5.38,4.671,4.671,0,0,0,4.9-3.94l-2.84-.26a1.919,1.919,0,0,1-2.06,1.68c-1.36,0-2.34-1.04-2.34-2.86,0-1.84.98-2.88,2.34-2.88a1.932,1.932,0,0,1,2.04,1.74l2.86-.24A4.67,4.67,0,0,0,340.5,8.46Zm16.28,6.3V13.6c0-3.22-1.96-5.14-4.94-5.14a5.008,5.008,0,0,0-5.26,5.38,5.039,5.039,0,0,0,5.34,5.38c2.42,0,4.4-1.4,4.76-3.36l-2.94-.14a1.769,1.769,0,0,1-1.9,1.14,2.021,2.021,0,0,1-2.16-2.1Zm-4.96-4.02a1.907,1.907,0,0,1,2.02,2.08h-4.16A2.02,2.02,0,0,1,351.82,10.74ZM364.38,4.3A14.955,14.955,0,0,0,362,12.6a14.955,14.955,0,0,0,2.38,8.3l2.52-.88a14.764,14.764,0,0,1,0-14.84Zm3.88-.26V19h6.14a7.042,7.042,0,0,0,7.44-7.48c0-4.7-3.16-7.48-7.42-7.48Zm3.08,2.64h3.1c2.62,0,4.34,1.62,4.34,4.84s-1.74,4.84-4.34,4.84h-3.1Zm22.12.08V4.04h-9.6V19h9.62V16.26h-6.52v-3.6h5.64V10h-5.64V6.76Zm.82-1.58a14.893,14.893,0,0,1,0,14.84l2.52.88a15.119,15.119,0,0,0,2.38-8.3,15.119,15.119,0,0,0-2.38-8.3Z" transform="translate(56 16)" fill="#00285a"/><path d="M23.674,20.75,19,16.077a1.124,1.124,0,0,0-.8-.328h-.764a9.747,9.747,0,1,0-1.688,1.687V18.2a1.124,1.124,0,0,0,.328.8l4.674,4.673a1.121,1.121,0,0,0,1.589,0l1.327-1.326A1.13,1.13,0,0,0,23.674,20.75Zm-13.923-5a6,6,0,1,1,6-6A6,6,0,0,1,9.751,15.748Z" transform="translate(17 17)" fill="#1269d3"/></svg>