<svg xmlns="http://www.w3.org/2000/svg" xmlns:xlink="http://www.w3.org/1999/xlink" viewBox="0 0 230 46"><defs><style>.cls-1{fill:none;}.cls-2{fill:#fff;}.cls-3{fill:#ec6c6b;}.cls-4{clip-path:url(#clip-path);}.cls-5{fill:red;}.cls-6{fill:#1a1311;}</style><clipPath id="clip-path"><rect class="cls-1" x="38.98" y="10.01" width="20" height="24"/></clipPath></defs><g id="レイヤー_2" data-name="レイヤー 2"><g id="レイヤー_1-2" data-name="レイヤー 1"><path class="cls-2" d="M23,45A22,22,0,0,1,23,1H207a22,22,0,0,1,0,44Z"/><path class="cls-3" d="M207,2a21,21,0,0,1,0,42H23A21,21,0,0,1,23,2H207m0-2H23A23,23,0,0,0,0,23H0A23,23,0,0,0,23,46H207a23,23,0,0,0,23-23h0A23,23,0,0,0,207,0Z"/><path class="cls-3" d="M81.15,18.88a3.11,3.11,0,0,0-.27.72c-1.25,5-4.13,8.32-9.11,10.39a5.81,5.81,0,0,0-1.41-1.91,11.61,11.61,0,0,0,8.36-8.61H71.1a11.5,11.5,0,0,0-2,.1V17.48a10.5,10.5,0,0,0,2,.12h7.35a10.28,10.28,0,0,0,1.15-.05,9.27,9.27,0,0,0-1-1.62l1.17-.43A10,10,0,0,1,81.23,18l-.64.26Zm.95-1.14a11.31,11.31,0,0,0-1.38-2.48l1.15-.43a8.94,8.94,0,0,1,1.41,2.43Z"/><path class="cls-3" d="M86.4,27.91V29H84.33a10.55,10.55,0,0,0,.06-1.38V18.48a10.41,10.41,0,0,0-.06-1.35c.38,0,.72.05,1.36.05h9.09c.69,0,1,0,1.35-.05,0,.42,0,.74,0,1.33v9.16A12.88,12.88,0,0,0,96.14,29H94.08v-1.1ZM94.08,19H86.4v7.09h7.68Z"/><path class="cls-3" d="M110.75,18.89a3.49,3.49,0,0,0-.4,1,15.6,15.6,0,0,1-3.22,6A15.93,15.93,0,0,1,101.44,30a5.39,5.39,0,0,0-1.37-1.68,12.86,12.86,0,0,0,8.18-8.62l-4.81.06a15.88,15.88,0,0,1-3.75,4.11,4.28,4.28,0,0,0-1.55-1.37,12.65,12.65,0,0,0,4.14-4.64,6.27,6.27,0,0,0,.82-2.13l2.19.44a2.51,2.51,0,0,0-.27.48c-.13.29-.27.61-.43.93a1.89,1.89,0,0,0-.11.23l-.13.24c.19,0,.45,0,.77,0l3.5,0c.43,0,.71,0,.83,0a9.49,9.49,0,0,0-1.16-2l1.18-.4A10.87,10.87,0,0,1,110.9,18l-.69.26Zm1-1.15a11.72,11.72,0,0,0-1.37-2.48l1.15-.4A9.79,9.79,0,0,1,113,17.29Z"/><path class="cls-3" d="M115.42,17a8.53,8.53,0,0,0-.1-1.56h1.88a9.75,9.75,0,0,0-.1,1.57v1.36h.53a10.47,10.47,0,0,0,1.39-.09V20a12.4,12.4,0,0,0-1.36-.08h-.53a12.42,12.42,0,0,0,2.31,3.22,5.94,5.94,0,0,0-.87,1.62A12.08,12.08,0,0,1,117,22.13a18.2,18.2,0,0,1,.08,2.33V28.4a11.87,11.87,0,0,0,.1,1.75h-1.86a13.33,13.33,0,0,0,.1-1.73V25.23a21.44,21.44,0,0,1,.09-2.38,14.55,14.55,0,0,1-2.16,4,6,6,0,0,0-.9-1.68,16.69,16.69,0,0,0,2.82-5.3h-.83a14.22,14.22,0,0,0-1.54.08V18.24a12.27,12.27,0,0,0,1.56.09h.94Zm10.21,11.15c0,.9-.22,1.35-.73,1.56a5.1,5.1,0,0,1-1.78.19c-.42,0-.56,0-1.67-.07A5,5,0,0,0,121,28l.48.06a14.22,14.22,0,0,0,1.78.13c.53,0,.66-.08.66-.45V20h-2.76a13,13,0,0,0-1.79.1V18.35a13.38,13.38,0,0,0,1.78.1h2.77V17.34a12.19,12.19,0,0,0-.11-1.87h2a14.15,14.15,0,0,0-.1,1.89v1.09h.11a10.4,10.4,0,0,0,1.56-.1v1.74c-.47,0-.92-.06-1.51-.06h-.16Zm-4.22-2.21a14.72,14.72,0,0,0-2-4l1.5-.73a14.84,14.84,0,0,1,2,3.84Z"/><path class="cls-3" d="M128.23,18a7.64,7.64,0,0,0,1.28.07h2.74a8.31,8.31,0,0,0,1.28-.06v1.65a7,7,0,0,0-1.21-.06h-2.81a9.81,9.81,0,0,0-1.28.06Zm9.27,5.84c0,.27,0,.48-.05.75-.11,1.94-.38,2.9-1.1,3.81a6.51,6.51,0,0,1-2.58,1.87,4.06,4.06,0,0,0-.57-1c-.34,0-.56,0-.77,0h-2.19v.8h-1.57c0-.51.08-1.09.08-1.55V26.1a9.86,9.86,0,0,0-.07-1.24,5.68,5.68,0,0,0,1.07.05h2.66a6.14,6.14,0,0,0,1-.05,6.14,6.14,0,0,0-.05,1.16v2.54a5.27,5.27,0,0,0,1.44-.93,4.15,4.15,0,0,0,1.06-3.13,3.47,3.47,0,0,0-.06-.74Zm-8.74-8.07a9,9,0,0,0,1.3.06H132a9.17,9.17,0,0,0,1.3-.06v1.54a9.3,9.3,0,0,0-1.3-.07h-1.95a9.11,9.11,0,0,0-1.3.07Zm0,4.66a8.5,8.5,0,0,0,1,.05h2.53a7.54,7.54,0,0,0,1-.05v1.49a6.57,6.57,0,0,0-1-.05h-2.53a6.62,6.62,0,0,0-1,.05Zm0,2.24a8.5,8.5,0,0,0,1,.05h2.53a7.54,7.54,0,0,0,1-.05v1.49a8.38,8.38,0,0,0-1-.05h-2.51a8.5,8.5,0,0,0-1,.05Zm1.48,5.19h1.63V26.22h-1.63Zm10.94-2.95V23.17h-6v1.71h-1.61a9,9,0,0,0,.06-1.18v-.95a6.92,6.92,0,0,0-.06-1.15l1.46,0h6.3a12.54,12.54,0,0,0,1.57-.07,11.17,11.17,0,0,0,0,1.14v1a7.22,7.22,0,0,0,.07,1.14Zm-5.76-6.66a11,11,0,0,0-1.57.08V16.62a9.38,9.38,0,0,0,1.68.1h1.75v-.21a6,6,0,0,0-.1-1.2H139a6.79,6.79,0,0,0-.09,1.21v.2h2.25a9.74,9.74,0,0,0,1.72-.1V18.3a11.11,11.11,0,0,0-1.57-.08h-2.4v1.14h1.84a10.69,10.69,0,0,0,1.52-.08v1.6a9.11,9.11,0,0,0-1.52-.08h-5.08a9.32,9.32,0,0,0-1.52.08v-1.6a10.69,10.69,0,0,0,1.52.08h1.59V18.22Zm4.74,5.57a5.3,5.3,0,0,0-.1,1.14V28c0,.32.11.39.66.39s.66-.1.72-.39a12.18,12.18,0,0,0,.13-1.86,6.19,6.19,0,0,0,1.55.58c-.13,1.68-.24,2.27-.51,2.66s-.83.56-2,.56c-1.79,0-2.22-.26-2.22-1.31v-3.7a5.94,5.94,0,0,0-.08-1.14Z"/><path class="cls-3" d="M146.28,21.5a14.84,14.84,0,0,0-1.92.1V19.84a15,15,0,0,0,2,.09H150V18.54h-2.4a16.72,16.72,0,0,0-1.82.07V16.92a12.54,12.54,0,0,0,1.89.1H150v-.27a9.08,9.08,0,0,0-.09-1.41h1.95a6.91,6.91,0,0,0-.09,1.41V17h1.15a11.75,11.75,0,0,0,1.79-.1V18.3a11.65,11.65,0,0,0,1.86-2.43l1.58,1c-.11.11-.35.38-.72.82a22.49,22.49,0,0,1-2.18,2.2h1.65a14.45,14.45,0,0,0,1.83-.09V21.6a15.5,15.5,0,0,0-2-.1h-3.44c-.61.43-1,.71-1.73,1.17.36,0,.88,0,1.3,0h2.35c.77,0,1.22,0,1.68,0,0,.46-.06.85-.06,1.74v4a11.46,11.46,0,0,0,.1,1.8H155v-.68h-5.81v.68h-1.87a15.64,15.64,0,0,0,.09-1.8V25.82c0-.25,0-.6,0-.89-1,.48-1.31.62-2.55,1.12a5.8,5.8,0,0,0-.94-1.6,26.45,26.45,0,0,0,6.59-2.95Zm2.95,3.8H155V24.11h-5.79Zm0,2.62H155V26.69h-5.79Zm3.62-8a15.28,15.28,0,0,0,1.53-1.34c-.43,0-.7-.05-1.34-.05h-1.31v1.39Z"/><path class="cls-3" d="M174.19,18.3a2.78,2.78,0,0,0-.29.34,17.48,17.48,0,0,1-1.4,1.49,17,17,0,0,0,2.43,1.13,5.16,5.16,0,0,0-.83,1.6,15.36,15.36,0,0,1-3.88-2.32v.95a5.84,5.84,0,0,0-1.07-.07h-3.54a5.84,5.84,0,0,0-1,.07v-1a17.62,17.62,0,0,1-4,2.48,4.71,4.71,0,0,0-.87-1.52,13.41,13.41,0,0,0,3-1.59A13.45,13.45,0,0,0,160.62,18l1.18-1.06a19.26,19.26,0,0,1,2.24,2,8.13,8.13,0,0,0,1.52-1.62h-2.11a6.64,6.64,0,0,0-1,.06V15.68a7.49,7.49,0,0,0,1.32.08h3a8.49,8.49,0,0,0,1.38-.07,4,4,0,0,0,1.07,1.81,9.13,9.13,0,0,0,1.35-1.73l1.33.88a17.56,17.56,0,0,1-1.65,1.84,8.68,8.68,0,0,0,1,.8,8.6,8.6,0,0,0,1.58-1.89Zm-9.76,9.89a6.53,6.53,0,0,0-.66-1.29l1.41-.52h-1.71a10.54,10.54,0,0,0-1.15.05,10.9,10.9,0,0,0,.06-1.17v-2a9.3,9.3,0,0,0-.06-1.09,9.49,9.49,0,0,0,1.26.06h7.55a8.82,8.82,0,0,0,1.25-.06,8.27,8.27,0,0,0-.06,1.07v2a9.19,9.19,0,0,0,.06,1.17,10.81,10.81,0,0,0-1.15-.05h-1.55l1.33.48c-.26.48-.63,1.17-.74,1.33H173a9.63,9.63,0,0,0,1.57-.08v1.73a12.43,12.43,0,0,0-1.67-.08H161.84a12.62,12.62,0,0,0-1.67.08V28.11a9.3,9.3,0,0,0,1.55.08Zm-.4-3.25h6.59V23.65H164ZM169.17,20h.4a13.55,13.55,0,0,1-2.21-2.52A13.1,13.1,0,0,1,165.15,20h4Zm-.63,8.19a9.89,9.89,0,0,0,.82-1.81h-4a14.46,14.46,0,0,1,.8,1.81Z"/><path class="cls-3" d="M178.06,20.73c-.35,0-.59,0-.95.05v-.85c-.3.28-.4.36-.73.63a4.78,4.78,0,0,0-.74-1.52,7.39,7.39,0,0,0,2.77-3.46h1.76a6.46,6.46,0,0,0,2.34,2.69,6,6,0,0,0-1,1.42l-.13-.11v1.2a5.33,5.33,0,0,0-.94-.05H180v1.08h.64a6.92,6.92,0,0,0,1.13-.07V20.41a9.6,9.6,0,0,0,1.54.1h4.05c0-.48,0-.64.06-.91h-3.17a10.82,10.82,0,0,0-1.45.06V18.14a7.65,7.65,0,0,0,1.45.08h3.24c0-.4,0-.45,0-.88H184a14.71,14.71,0,0,0-1.52.06V15.87A11.49,11.49,0,0,0,184,16h3.76a11.2,11.2,0,0,0,1.47-.07c0,.37,0,.37-.09,1.56,0,.83-.13,2.24-.19,3.07h.09a9.19,9.19,0,0,0,1.54-.1V22a13.17,13.17,0,0,0-1.52-.08h-2.15a7.87,7.87,0,0,0,.77,2.37,7.74,7.74,0,0,0,1.55-1.92l1.32.93a18.73,18.73,0,0,1-2.13,2.27,7.79,7.79,0,0,0,2.46,2.3,7.33,7.33,0,0,0-1,1.57A9.94,9.94,0,0,1,188,27.38a8.94,8.94,0,0,1-1.22-2.48c0,.32.07.91.1,1.77v2c0,1.07-.47,1.46-1.76,1.46-.35,0-.79,0-1.41-.07a4.39,4.39,0,0,0-.37-1.61,6.41,6.41,0,0,0,1.25.16c.59,0,.7-.07.7-.42V26.72a13.35,13.35,0,0,1-1.13.9l-1.36.94-.53.37-.51-1.14v.64a36.34,36.34,0,0,1-4.29,1.14,8.2,8.2,0,0,0-1.27.29L176,28.1a11.69,11.69,0,0,0,2.5-.34V23.28h-.83a12.62,12.62,0,0,0-1.57.08V21.73a15.49,15.49,0,0,0,1.58.08h.82V20.73Zm-1.25,6.63a16.22,16.22,0,0,0-.67-3.12l1.25-.38a17.91,17.91,0,0,1,.7,3.1Zm1.28-8.07h3a9.63,9.63,0,0,1-1.7-2.26,9.39,9.39,0,0,1-1.6,2.27Zm5.22,2.63a11.21,11.21,0,0,0-1.43.06v1.38a6.85,6.85,0,0,0-1.24-.08H180v4.16c.6-.14.89-.24,1.74-.5v.34A17,17,0,0,0,185.29,25v-3Zm-3.12,4.46a13,13,0,0,0,.64-2.6l1.21.4a14.47,14.47,0,0,1-.76,2.56Zm3.25-4a10.3,10.3,0,0,1,1.39,2.38l-1.23.82A10.76,10.76,0,0,0,182.19,23Z"/><g id="アートワーク_7" data-name="アートワーク 7"><g class="cls-4"><g class="cls-4"><path class="cls-5" d="M39,34H59a13.58,13.58,0,0,0-20,0"/><path class="cls-6" d="M52.77,23a1.51,1.51,0,0,0-1.38-1.51A1.31,1.31,0,0,0,50,22.8a1.62,1.62,0,0,0,1.59,1.55A1.27,1.27,0,0,0,52.77,23"/><path class="cls-6" d="M47.36,19.52a1.25,1.25,0,0,0-1.18,1.29,1.29,1.29,0,0,0,1.28,1.36A1.12,1.12,0,0,0,48.57,21a1.34,1.34,0,0,0-1.21-1.44"/><path class="cls-6" d="M45.62,15.57s-.11-5.31-.12-5.56H43.62c0,.32-.11,5.44-.11,5.44v.17l-3,.2c0,.25,0,1.61,0,1.89h.22l2.83,0v1.56l0,.05a46,46,0,0,0-3.88,4.46l1.25,1.35c.21-.23,2.71-2.83,2.71-2.83v.42s.11,5.58.11,5.9H45.5c0-1.48.14-5.79.14-9.35,0-.53,0-1,0-1.52v-.17L48,17.36V15.52H47.5Z"/><path class="cls-6" d="M56,10H54.07c0,.33,0,5.35,0,5.35h-.47l-4.23.27c0,.25,0,1.49,0,1.76l4.5-.08H54l0,2.23.06,6.51v.18l-2.4-.06c0,.25-.16,1.53-.19,1.8a40.35,40.35,0,0,0,4.55.4c.06-1.4.14-6,.14-9.41V17.25l2.26-.16V15.34l-2.13,0h-.17S56,10.34,56,10"/></g></g></g></g></g></svg>